<svg id="Layer_1" data-name="Layer 1" xmlns="http://www.w3.org/2000/svg" viewBox="0 0 1080 284"><defs><style>.cls-1{fill:#c4112f;}.cls-2{fill:#8c0c03;}.cls-3{fill:#00477d;}</style></defs><title>logo</title><path class="cls-1" d="M76.63,174c3.42,5.94,7,11.48,9.87,17.31,2.11,4.26,1.94,8.63-2.3,12-12,9.38-24.36,17.44-40.66,17.09-5.31-.11-9.46-2.23-13.63-4.62-3.41-1.95-5.4,0-6.55,2.24-.71,1.38-.11,4.16.93,5.52A30.76,30.76,0,0,0,32,231c6.28,3.9,11.52,9.83,19.44,10.77,15.68,1.85,27.36-4.44,36.4-17,4.94-6.85,9.16-13.75,11.32-22,.83-3.19,2.06-6.76,7.87-7.31,8-.77,14.67-5.92,20.16-13.5,5,7.4,11.91,11.11,20,12.39,6.13,1,12.4,1,18.58,1.63,13.91,1.52,25.47-2.9,34.81-13.52,6.13,7.28,13.69,12.88,22.7,13.21,22.52.81,45.09.26,68.55.26,0-5.25.32-9.66-.07-14-.85-9.46-4.8-12.79-14.73-12.91-5.89-.07-11.78,0-17.67,0-10,0-19.94,0-29.9-.1a18.36,18.36,0,0,1-15.68-8.74c-2.64-4.19-6.14-9-1.28-14.53,1-1.1-.13-4-.4-7.71-8,4.78-12.85,10.16-15.53,17.4-2.29,6.19-6.44,9.2-13,11.38-10.27,3.41-20.5,2.53-30.62,1.88-8.72-.55-13.65-7.75-13.67-16.58a48.35,48.35,0,0,1,.19-6.71,39.16,39.16,0,0,1,1.73-5.72c-8,1.07-13.09,5.08-15.05,11.91-3,10.61-10.25,15.73-23.61,17.51L90.3,155.38C82,159.14,80.91,167.8,76.63,174ZM310.85,61.06c-1.94,2.35-3.85,5.59-6.6,7.78-5.8,4.62-8.6,10.26-7,17.44,3,13.54,2.26,27.25,2.74,40.94.52,15,1,30.06,2.87,44.92,1.23,9.64,5.66,18.55,16.85,21.12,5.12,1.18,10.35,2.5,15.55,2.58,19.76.3,39.54.12,59.94.12,0-5.57.31-10-.07-14.38-.61-7.15-5.55-11.9-12.69-12.55-2.69-.24-5.42,0-8.14,0-13.12,0-26.25-.39-39.36.08-11,.4-19.69-8-18.63-19,.3-3.1.08-6.26.07-9.39q-.06-34.25-.12-68.49C316.24,68.14,316.72,64,310.85,61.06Zm119,7.32c-3.63,3.75-5.94,5.91-8,8.29-6.91,8.08-14.65,15.84-8,27.93,1.15,2.08.23,5.28.23,8,0,18.81.14,37.63.11,56.44,0,6.58.65,13.18-2.54,19.52-1,1.89.34,4.88.59,7.31,8.05-.32,7.88-.45,11.47-5a42.84,42.84,0,0,0,9.28-25.31c.71-29.55.28-59.12.07-88.68C433.12,74.49,431.39,72.16,429.87,68.38ZM461.7,39c-8.59,6.52-17.95,10.13-28.5,8.59-6.48-1-12.87-2.59-19.27-4.07-6.14-1.43-12-2.55-17.76,1.71-9,6.62-8.54,18-1.87,27.12,2.38,3.26,6,3.49,7.41-.27,4-10.6,12.23-9.42,19.86-7,7.21,2.27,14.31,1.91,21.29,1.34C454.92,65.42,463.55,52.68,461.7,39ZM221.49,129.74c3.67-4.86,7-8.49,9.29-12.67,1-1.84.81-5.62-.49-7.12-4.33-5-9.41-9.43-14.81-14.66l-14.72,17.18L184.55,97c-4.07,4.67-7.36,8.33-10.51,12.11-3.34,4-3.07,7.08.92,10.2,4.9,3.83,9.9,7.53,15.44,11.72l12.69-15.25Zm-90.34-15.19L148.28,130l12.43-15.35-17.8-18.32-15,16.44-16.58-15.2L98,114.89l19.53,17Zm112.75-1.13L264,128.88l12.78-17.34-19.92-15.6Z"/><path class="cls-1" d="M387,244.45l-16-14.66,11.32-17.74c3.86,2.65,7.74,4.59,10.69,7.46,9.38,9.13,11.39,6.93,1.41,21.62-.72,1.05-1.29,2.21-1.93,3.32Z"/><path class="cls-1" d="M76.63,174c-.64-1.21,3.27-6.58,3.89-7.66,1.41-2.5,7.45-13.59,11-9.58l9.27,10.44a4.79,4.79,0,0,0,1.83,1.49,4.63,4.63,0,0,0,2.31,0c9.56-1.66,18.38-7.54,21.16-17.2a15.77,15.77,0,0,1,5.13-8c2.21-1.79,6.93-4.4,9.79-3.71,0,0-1.51,5-1.59,5.5a37.93,37.93,0,0,0-.2,6.74c0,8.83,5,16,13.67,16.58,10.12.65,20.35,1.53,30.62-1.88,5.63-1.87,10.46-5.1,12.76-10.78a39.72,39.72,0,0,1,2.84-6c3.14-5.1,7.82-9,12.92-12,.15,2,1.2,4.71.74,6.67A8.29,8.29,0,0,1,211.4,147c-3,4.62-.2,9.14,2.32,13.14a18.36,18.36,0,0,0,15.68,8.74c10,.15,19.93.08,29.9.1,5.89,0,11.78-.06,17.67,0,9.93.12,13.88,3.45,14.73,12.91.39,4.36.07,8.77.07,14-23.46,0-46,.55-68.55-.26-9-.33-16.57-5.93-22.7-13.21-9.34,10.62-20.9,15-34.81,13.52-6.18-.67-12.45-.66-18.58-1.63-8.06-1.28-15-5-20-12.39-5.49,7.58-12.19,12.73-20.16,13.5-5.81.55-7,4.12-7.87,7.31-2.16,8.29-6.38,15.19-11.32,22-9,12.53-20.72,18.82-36.4,17C43.49,240.84,38.25,234.91,32,231a30.76,30.76,0,0,1-7.68-7.55c-1-1.36-1.64-4.14-.93-5.52,1.15-2.21,3.14-4.19,6.55-2.24,4.17,2.39,8.32,4.51,13.63,4.62,16.3.35,28.69-7.71,40.66-17.09,4.24-3.34,4.41-7.71,2.3-12C83.59,185.43,80.05,179.89,76.63,174Z"/><path class="cls-1" d="M310.85,61.06c5.87,2.92,5.39,7.08,5.4,11.1q0,34.25.12,68.49c0,3.13.23,6.29-.07,9.39-1.06,11,7.65,19.43,18.63,19,13.11-.47,26.24-.09,39.36-.08,2.72,0,5.45-.2,8.14,0,7.14.65,12.08,5.4,12.69,12.55.38,4.37.07,8.81.07,14.38-20.4,0-40.18.18-59.94-.12-5.2-.08-10.43-1.4-15.55-2.58-11.19-2.57-15.62-11.48-16.85-21.12-1.91-14.86-2.35-29.93-2.87-44.92-.48-13.69.28-27.4-2.74-40.94-1.59-7.18,1.21-12.82,7-17.44C307,66.65,308.91,63.41,310.85,61.06Z"/><path class="cls-1" d="M429.87,68.38c1.52,3.78,3.25,6.11,3.27,8.45.21,29.56.64,59.13-.07,88.68a42.84,42.84,0,0,1-9.28,25.31c-3.59,4.57-3.42,4.7-11.47,5-.25-2.43-1.54-5.42-.59-7.31,3.19-6.34,2.53-12.94,2.54-19.52,0-18.81-.06-37.63-.11-56.44,0-2.69.92-5.89-.23-8-6.69-12.09,1.05-19.85,8-27.93C423.93,74.29,426.24,72.13,429.87,68.38Z"/><path class="cls-1" d="M461.7,39c1.85,13.67-6.78,26.41-18.84,27.39-7,.57-14.08.93-21.29-1.34-7.63-2.39-15.89-3.57-19.86,7-1.41,3.76-5,3.53-7.41.27-6.67-9.15-7.17-20.5,1.87-27.12,5.8-4.26,11.62-3.14,17.76-1.71,6.4,1.48,12.79,3.12,19.27,4.07C443.75,49.14,453.11,45.53,461.7,39Z"/><path class="cls-1" d="M221.49,129.74l-18.4-14L190.4,131c-5.54-4.19-10.54-7.89-15.44-11.72-4-3.12-4.26-6.2-.92-10.2,3.15-3.78,6.44-7.44,10.51-12.11l16.21,15.47,14.72-17.18c5.4,5.23,10.48,9.63,14.81,14.66,1.3,1.5,1.49,5.28.49,7.12C228.5,121.25,225.16,124.88,221.49,129.74Z"/><path class="cls-1" d="M131.15,114.55l-13.59,17.31L98,114.89l13.32-17.34,16.58,15.2,15-16.44,17.8,18.32L148.28,130Z"/><path class="cls-1" d="M243.9,113.42l12.93-17.48,19.92,15.6L264,128.88Z"/><path class="cls-2" d="M621.94,143.59H558.65l-60.95-97a2.44,2.44,0,0,1,2.07-3.74h57.52A2.44,2.44,0,0,1,559.36,44Z"/><path class="cls-1" d="M499.4,244.91h57.52a2.46,2.46,0,0,0,2.07-1.15l63-100.17H558.65l-61.32,97.57A2.45,2.45,0,0,0,499.4,244.91Z"/><path class="cls-3" d="M683.57,47.22l-50.8,80.86-1.13,1.8-1.13-1.8L600,79.5l21.9-34.88A2.47,2.47,0,0,1,624,43.47h57.51A2.45,2.45,0,0,1,683.57,47.22Z"/><path class="cls-3" d="M681.49,245H624a2.47,2.47,0,0,1-2.08-1.15l-22.32-35.52,30.93-49.23.72-1.15.72,1.15,51.62,82.15A2.45,2.45,0,0,1,681.49,245Z"/><path class="cls-1" d="M768.14,157.48H716.26a5.35,5.35,0,0,0-5.45,5.24v4.74c0,2.91,2.29,5,5.45,5H734v66.28a5.36,5.36,0,0,0,5.23,5.45h5.94a5.36,5.36,0,0,0,5.23-5.45V172.48h17.74a5.07,5.07,0,0,0,5.34-5v-4.74A5.17,5.17,0,0,0,768.14,157.48Z"/><path class="cls-1" d="M802.85,177.54c-16.8,0-27.23,10.94-27.23,28.54v9.7c0,18.55,10.12,29.18,27.77,29.18a100.83,100.83,0,0,0,19.92-1.89c3.17-.59,4.84-2.57,4.84-5.71v-3.67a4.81,4.81,0,0,0-5-4.81h-.79l-.24,0a144,144,0,0,1-18.71,1.15c-6.84,0-11.22-2.15-11.66-12.5h32.8a5.34,5.34,0,0,0,5.35-5.67v-5.82C829.88,188.21,819.78,177.54,802.85,177.54Zm-11.07,26.21c.72-10,6.23-11.31,11.07-11.31,6.21,0,10.23,2,10.78,11.31Z"/><path class="cls-1" d="M874.11,230.72h-6a7.47,7.47,0,0,1-2.16-.19,8.68,8.68,0,0,1-.37-3.31V192.87h8.35a5.46,5.46,0,0,0,5.46-5.45v-3.67a5.46,5.46,0,0,0-5.46-5.45h-8.35v-8.47a5,5,0,0,0-4.91-5.12h-.58l-5.94.91a5.49,5.49,0,0,0-4.65,5.4v7.28h-7.17a5.17,5.17,0,0,0-5.34,5.23v2.92a5.21,5.21,0,0,0,5,5.21l7.54.85v34.71c0,15.59,8.63,17.74,18,17.74a55.56,55.56,0,0,0,7.51-.57c3.5-.54,4.74-3,4.74-5.09v-3.78C879.67,233.31,878.21,230.72,874.11,230.72Z"/><path class="cls-1" d="M919.79,177.54a49.83,49.83,0,0,0-13.2,2V162a5.34,5.34,0,0,0-5.35-5.45h-5.39A5.34,5.34,0,0,0,890.5,162v76.8a5.41,5.41,0,0,0,5.35,5.45h5.28a5.53,5.53,0,0,0,5.46-5.45V194.4a41.11,41.11,0,0,1,11.59-2c4.17,0,8.24.83,8.24,10.83v35.49a5.46,5.46,0,0,0,5.45,5.45h5.18a5.46,5.46,0,0,0,5.45-5.45V203.27C942.5,186.92,934.23,177.54,919.79,177.54Z"/><path class="cls-1" d="M983.57,177.54c-16.8,0-27.24,10.94-27.24,28.54v9.7c0,18.55,10.12,29.18,27.78,29.18a100.73,100.73,0,0,0,19.91-1.89c3.17-.59,4.85-2.57,4.85-5.71v-3.67a4.81,4.81,0,0,0-5-4.81h-.79l-.25,0a143.93,143.93,0,0,1-18.7,1.15c-6.85,0-11.23-2.15-11.66-12.5h32.8a5.34,5.34,0,0,0,5.34-5.67v-5.82C1010.59,188.21,1000.49,177.54,983.57,177.54Zm-11.08,26.21c.73-10,6.24-11.31,11.08-11.31,6.2,0,10.22,2,10.77,11.31Z"/><path class="cls-1" d="M1050.11,177.54a27.58,27.58,0,0,0-12.8,3.17,5.25,5.25,0,0,0-4.46-2.41h-5.07a5.33,5.33,0,0,0-5.34,5.45v55a5.4,5.4,0,0,0,5.34,5.45h5.29a5.53,5.53,0,0,0,5.45-5.45V195.47a23.27,23.27,0,0,1,11.59-3.14c3.84,0,5.56-2.58,5.56-5.13v-4.42C1055.67,179.65,1053.43,177.54,1050.11,177.54Z"/><path class="cls-3" d="M786.42,134.3a5.33,5.33,0,0,0-.3-1.93L764.18,55c-2-7.23-7.57-11.37-15.24-11.37s-13.33,4.19-15.36,11.47l-22,77.23a5.33,5.33,0,0,0-.3,1.93,5.27,5.27,0,0,0,5.38,5.26h7a5.74,5.74,0,0,0,5.38-4.24L736,110.43h25.7l7,24.8a5.48,5.48,0,0,0,5.28,4.33h7A5.21,5.21,0,0,0,786.42,134.3Zm-46.27-40,8.73-31.54,8.72,31.54Z"/><path class="cls-3" d="M813.73,139.28a141.72,141.72,0,0,0,19.91,1.11c25.27,0,38.08-9.61,38.08-28.57v-2c0-8.08-3.5-15-9.44-19.32,5.76-4.23,9-10.74,9-18.6V70c0-17.45-12.85-26.3-38.19-26.3a177.77,177.77,0,0,0-19.23,1c-4.28.41-6.84,3.31-6.84,7.75v79.18C807,136.1,809.28,138.7,813.73,139.28Zm10.9-79.51c2.68-.11,5.64-.23,8.42-.23,17.27,0,20.65,3.83,20.65,10.43v1.91c0,5-1.6,10.79-14.12,10.79h-15Zm0,38.29h15c13.08,0,14.6,6.7,14.6,11.74v2c0,8-3.36,12.7-20.54,12.7-2.47,0-5-.14-7.53-.27l-1.48-.07Z"/><path class="cls-3" d="M965.13,134.3a5.33,5.33,0,0,0-.3-1.93L942.89,55c-2-7.23-7.57-11.37-15.24-11.37s-13.33,4.19-15.36,11.47l-21.94,77.23a5.33,5.33,0,0,0-.3,1.93,5.26,5.26,0,0,0,5.38,5.26h7a5.73,5.73,0,0,0,5.38-4.24l6.92-24.89h25.71l7,24.8a5.47,5.47,0,0,0,5.28,4.33h7A5.21,5.21,0,0,0,965.13,134.3Zm-46.26-40,8.72-31.54,8.72,31.54Z"/><path class="cls-3" d="M1051.45,44.5h-6.3a5.57,5.57,0,0,0-5.5,5.62v56.62l-30.54-58.08c-1.67-3.15-3.58-4.16-7.83-4.16h-6.54a6.68,6.68,0,0,0-6.81,6.69v83.58c0,2.21,1.44,4.79,5.5,4.79h6.18a5.57,5.57,0,0,0,5.5-5.62V77.19L1036,135.8c1.19,2.39,3.68,3.76,6.81,3.76h7.37a6.82,6.82,0,0,0,6.81-6.81V50.12A5.51,5.51,0,0,0,1051.45,44.5Z"/></svg>